<?xml version="1.0" encoding="utf-8"?>
<!-- Generator: Adobe Illustrator 22.0.1, SVG Export Plug-In . SVG Version: 6.00 Build 0)  -->
<svg version="1.1" id="Layer_1" xmlns="http://www.w3.org/2000/svg" xmlns:xlink="http://www.w3.org/1999/xlink" x="0px" y="0px"
	 viewBox="0 0 309.9 65.4" style="enable-background:new 0 0 309.9 65.4;" xml:space="preserve">
<style type="text/css">
	.st0{fill:#17315A;}
	.st1{fill:#FFFFFF;}
	.st2{fill:#95368E;}
	.st3{display:none;}
	.st4{display:inline;fill:#17305A;}
	.st5{fill:#17315A;enable-background:new    ;}
	.st6{fill:#792A8B;}
	.st7{fill:#96368D;}
	.st8{fill:#17305A;}
	.st9{fill:none;stroke:#FFFFFF;stroke-width:0.25;}
	.st10{fill:none;stroke:#96368D;stroke-width:0.5;stroke-miterlimit:10;}
	.st11{fill:none;stroke:#96368D;stroke-miterlimit:10;}
	.st12{fill:none;stroke:#96368D;stroke-width:0.75;stroke-miterlimit:10;}
</style>
<path class="st2" d="M47.9,33c-29-10.3-21.6-20.7-21.6-20.7c6.5-7.9,19.3,9.1,21.6,12.3l0-12c0,0,0-0.1,0-0.1C43.4,5,35.2,0,25.8,0
	C11.5,0,0,11.5,0,25.8c0,8.9,4.6,16.8,11.5,21.4c0,0,7.9,5.3,15.1,8.7c7.4,3.4,21.3,9.6,21.3,9.6v-6.5
	C10.8,46.4,11.1,37.1,11.1,37.1c2.4,8.9,36.7,20.7,36.8,20.7v-6.4c-36-13.1-34.4-22.2-34.4-22.2c1.3,9.2,34.3,21.1,34.4,21.1v-7
	C15.3,29.7,16.6,21,16.6,21c1.3,9.2,31.2,21.2,31.3,21.2v-3.3c0,0,0,0,0,0c0,0,0-0.1,0-0.1V33z"/>
<path class="st0" d="M49,33c29-10.3,21.6-20.7,21.6-20.7C64.1,4.5,51.3,21.4,49,24.6l0-12c0,0,0-0.1,0-0.1C53.5,5,61.7,0,71.1,0
	c14.2,0,25.8,11.5,25.8,25.8c0,8.9-4.6,16.8-11.5,21.4c0,0-7.9,5.3-15.1,8.7C62.9,59.3,49,65.4,49,65.4v-6.5
	C86,46.4,85.8,37.1,85.8,37.1C83.4,46,49.1,57.8,49,57.8v-6.4c36-13.1,34.4-22.2,34.4-22.2C82.1,38.4,49.1,50.3,49,50.3v-7
	C81.6,29.7,80.2,21,80.2,21C78.9,30.2,49.1,42.2,49,42.2v-3.3v0c0,0,0-0.1,0-0.1L49,33z"/>
<g>
	<path class="st0" d="M163.7,12.5c-0.3-5-0.2-6-3.9-7c-1-0.2-1.4-0.5-1.4-0.8c0-0.4,0.5-0.5,1.5-0.5c1.4,0,4.5,0.4,7.2,0.4
		c2.7,0,6.2-0.4,7.4-0.4c1.1,0,1.4,0.2,1.4,0.5c0,0.3-0.4,0.6-1.2,0.7c-3.1,0.7-3.5,2-3.8,5c-0.2,2.2-0.4,16.9-0.3,18.6
		c0,0.9,0.2,1.6,0.7,1.7c2.4,0.2,14.4,0.1,22.7,0.1c7.5,0,8.6-0.3,9-0.3c0.7-0.1,0.8-0.3,0.9-1.6c0.1-2.7-0.2-12.7-0.4-15.9
		c-0.3-5.8-0.5-7.1-4.1-7.6c-0.7-0.1-1.3-0.4-1.3-0.8c0-0.2,0.4-0.4,1.2-0.4c2.2,0,4.7,0.4,8.1,0.4c2.7,0,5.2-0.4,7.1-0.4
		c0.9,0,1.4,0.1,1.4,0.4c0,0.4-0.4,0.6-1.2,0.9c-3.7,0.7-3.9,2.1-4,6.4c-0.1,3.3,0,15.9,0.1,21.9c0.2,6,0.3,11.3,0.4,18.8
		c0.2,4.4,0.6,5.5,4.3,6.3c1,0.3,1.3,0.4,1.3,0.8c0,0.4-0.5,0.5-1.4,0.5c-2,0-6.1-0.3-8.2-0.3c-2.4,0-5.1,0.3-7,0.3
		c-1.1,0-1.8-0.2-1.8-0.7c0-0.3,0.4-0.5,1.5-0.7c3.1-0.6,3.7-1.4,3.9-5c0.1-3.8,0.3-14.7,0.1-18.1c-0.1-1.2-0.1-2.1-0.7-2.1
		c-3-0.2-13.8-0.3-22.4-0.3c-4.2-0.1-8.8-0.1-9.9-0.1c-0.3,0-0.6,0.5-0.6,2c0,8.8,0.4,18.8,0.9,20.6c0.3,1.9,1.5,2.7,3.4,3.1
		c1.2,0.3,1.5,0.6,1.5,1c0,0.4-0.7,0.5-1.6,0.5c-2,0-5.2-0.4-7.9-0.4c-2.3,0-5.6,0.4-7.2,0.4c-0.9,0-1.5-0.3-1.5-0.5
		c0-0.4,0.6-0.7,1.5-0.9c3.1-0.6,3.7-1.7,3.9-4.2c0.2-2.6,0.4-8.9,0.4-22.8C164,27.4,163.9,15.8,163.7,12.5z"/>
	<path class="st0" d="M269.5,7.4c0.7,0.4,1,1.1,0.9,1.5c-0.2,2.1,0.3,5.9,0.3,6.8c0,0.9-0.4,1.4-0.5,1.4c-0.4,0-0.6-0.4-0.8-1.2
		c-0.7-3-2.7-5.8-4.2-7.1c-3.3-3-8.4-4.4-13.5-4.4c-6.6,0-11.8,3.2-15.4,6.9c-3.8,4.2-6.7,12-6.7,20.5c0,8,3.5,16.4,8.1,21.4
		c4.3,4.7,10.4,6.5,15.1,6.5c5,0,8.1-1,10.5-2.5c3.4-1.9,5.5-5,6.8-8.7c0.4-1.2,0.5-1.5,0.9-1.5c0.4,0,0.5,0.8,0.5,1.3
		c0,1.5-1.1,6-1.2,7c-0.2,0.5-0.4,1.1-0.9,1.3c-5.3,3-10.1,4.9-17.2,4.9c-10.6,0-17.5-3.9-23-9.4c-3.7-3.8-7.4-11.9-7.4-19.5
		c0-10.6,4.2-17.2,9.9-22.4c4.7-4.2,12.5-7.3,20.6-7.3C259.4,3,266.6,5.8,269.5,7.4z"/>
	<path class="st0" d="M307.2,4.6c0.4,0.2,0.6,0.7,0.6,1c0,2.4,0.3,5,0.4,5.9c0.2,1.1-0.1,1.8-0.4,1.8c-0.4,0-0.6-0.4-0.8-1.4
		c-0.7-2.3-1.6-4.1-3.4-5.2c-1.9-1.5-4.9-2.3-7.2-2.3c-4.2,0-10.3,3.5-10.3,10.9c0,4.9,3.1,8,6.3,10.3c3.4,2.3,6.3,4.3,9.1,6.4
		c3.4,2.4,8.4,6.4,8.4,14.1c0,9.8-9.3,15.7-18.5,15.7c-3.9,0-9.3-1-12-2.5c-1-0.5-1.3-1.1-1.5-2.4c-0.2-1.4-0.9-4.3-0.9-6.5
		c-0.1-1,0.1-1.7,0.4-1.7c0.4,0,0.6,0.5,1,1.8c1.6,6.6,7.3,9.6,13,9.6c7.1,0,11.7-5.7,11.7-11.5c0-6-4.2-9.4-10.6-13.6
		c-6.8-4.6-12.2-9.4-12.2-17c0-4.9,2.1-8.7,5.7-11.4c2.4-1.9,6.3-3.5,11.4-3.5C301.4,3,305.7,4.2,307.2,4.6z"/>
	<path class="st0" d="M140.5,8.3c-6.1-3.7-12.5-4.8-19.5-4.8c-1.9,0-5.4,0.4-7.8,0.6c-3.6,0.4-7.5,0.4-11.2,0.4
		c-1,0-1.5,0.2-1.5,0.5c0,0.4,0.4,0.6,1.2,0.7c3.4,0.7,3.8,1.6,4,4.7c0.3,2.7,0.4,10.3,0.4,26.2c0,7.3-0.1,15.6-0.4,17.7
		c-0.2,3.4-1,4.2-4.2,4.8c-1.1,0.1-1.5,0.4-1.5,0.6c0,0.4,0.7,0.7,1.7,0.7c1,0,3.7-0.2,6.1-0.2c2.7,0,5.1,0.3,7.8,0.4
		c2.5,0.2,4.7,0.4,6.6,0.4c2.4,0,5.8-0.2,8.1-0.7c11.1-2.7,23.3-10.8,23.3-28.5C153.7,20.3,147.6,12.8,140.5,8.3z M144.4,41.2
		c0,0.1,0,0.1,0,0.1s-0.2,0.1-0.5,0.4c-0.3,0.2-0.5,0.4-0.5,0.4s0,0,0,0.1c0,0.1,0,0.1,0,0.1s-0.1,0.1-0.2,0.2
		c-0.1,0.1-0.2,0.2-0.2,0.2s0,0,0.1,0.1c0,0.1,0.1,0.1,0.1,0.1s0,0-0.1,0c0,0-0.1,0-0.1,0s0,0.1,0.1,0.3c0,0.2,0.1,0.3,0.1,0.3
		s0,0-0.1,0.1c0,0-0.1,0.1-0.1,0.1s0,0.1,0,0.2c0,0.2,0,0.2,0,0.2s0,0.1-0.1,0.3c-0.1,0.2-0.1,0.3-0.1,0.3s-0.1,0-0.2,0.1
		c-0.1,0-0.2,0.1-0.2,0.1s0,0,0.1,0.1c0,0.1,0.1,0.1,0.1,0.1s0,0-0.1,0.1c0,0-0.1,0.1-0.1,0.1s0,0,0.1,0.1c0.1,0.1,0.1,0.1,0.1,0.1
		s0,0.1-0.1,0.4c0,0.2-0.1,0.4-0.1,0.4s0,0,0.1,0.1c0.1,0,0.1,0.1,0.1,0.1s0.1,0,0.2,0c0.2,0,0.2,0,0.2,0s0,0,0.1,0.1
		c0.1,0.1,0.1,0.1,0.1,0.1s0,0.1,0,0.3c0,0.2,0,0.3,0,0.3s0,0-0.1,0.1c-0.1,0.1-0.1,0.1-0.1,0.1s0,0,0,0.1c0,0,0,0.1,0,0.1
		s0,0-0.1,0.1c-0.1,0-0.1,0.1-0.1,0.1s-0.1,0-0.2,0c-0.1,0-0.2,0-0.2,0s0,0,0,0c0,0,0,0,0,0s-0.7,0.1-2.2,0.2
		c-1.5,0.1-2.2,0.2-2.2,0.2s-0.5,0.1-1.6,0.2c-1.1,0.1-1.6,0.2-1.6,0.2s0-0.1,0-0.3c0-0.2,0-0.3,0-0.3s0,0-0.1-0.1
		c-0.1,0-0.1-0.1-0.1-0.1s0,0-0.1,0.1c0,0-0.1,0.1-0.1,0.1s0-0.1,0-0.3c0-0.2,0-0.3,0-0.3s0,0,0-0.1c0-0.1,0-0.1,0-0.1s0,0,0-0.1
		c0,0,0-0.1,0-0.1s0,0,0-0.1c0,0,0-0.1,0-0.1s0-0.1-0.1-0.4c-0.1-0.3-0.1-0.4-0.1-0.4s-0.1-0.1-0.3-0.4c-0.2-0.3-0.3-0.4-0.3-0.4
		s-0.1-0.1-0.2-0.2c-0.1-0.1-0.2-0.2-0.2-0.2s0,0-0.1-0.1c-0.1-0.1-0.1-0.1-0.1-0.1s0,0-0.1,0c-0.1,0-0.1,0-0.1,0s0-0.1-0.1-0.2
		c-0.1-0.1-0.1-0.2-0.1-0.2s-0.1,0-0.2-0.1c-0.1-0.1-0.2-0.1-0.2-0.1s-0.1-0.1-0.3-0.3c-0.1-0.1-0.2-0.2-0.3-0.2c0,0,0,0,0,0
		s-0.1,0-0.2,0c-0.2,0-0.2,0-0.2,0s-0.1,0-0.2,0c-0.2,0-0.2,0-0.2,0s0,0,0-0.1c0,0-0.1,0-0.1,0s0,0,0-0.1c0,0,0-0.1,0-0.1s0,0,0-0.1
		c0-0.1,0-0.1,0-0.1s0-0.1-0.1-0.3c-0.1-0.2-0.1-0.3-0.1-0.3s0-0.1-0.1-0.2c0,0-0.1-0.1-0.1-0.1c0,0-0.1,0-0.3,0c-0.2,0-0.3,0-0.3,0
		s0,0-0.1,0c-0.1,0-0.1,0-0.1,0s0,0,0,0l-0.1-0.1c0,0-0.1-0.1-0.1-0.1s0,0-0.1,0c-0.1,0-0.1,0-0.1,0s-0.2-0.1-0.4-0.2
		c-0.3-0.2-0.5-0.2-0.5-0.2l0,0l0,0c0,0,0-0.1-0.1-0.3c-0.1-0.2-0.1-0.3-0.1-0.3s-0.1-0.1-0.3-0.2c-0.2-0.1-0.3-0.2-0.3-0.2
		s-0.1,0-0.2-0.1c-0.1,0-0.2-0.1-0.2-0.1c0,0-0.1,0-0.1,0.1c-0.1,0-0.2,0.1-0.2,0.1s0,0,0,0c0,0-0.1,0-0.1-0.1c-0.1,0-0.1,0-0.1-0.1
		c0,0-0.1,0-0.1,0c-0.1,0-0.2,0-0.2,0s-0.1,0-0.2-0.1c-0.1-0.1-0.2-0.1-0.2-0.1s-0.1,0-0.2,0c-0.1,0-0.2,0-0.2,0s-0.2,0-0.5,0.1
		c-0.3,0-0.5,0.1-0.5,0.1s0-0.1-0.1-0.2c0-0.1,0-0.1-0.1-0.1c0,0,0,0,0,0c0,0-0.1,0-0.2-0.1c-0.2-0.1-0.2-0.1-0.2-0.1s0,0,0,0
		c0,0,0,0,0,0s0-0.1,0.1-0.3c0-0.2,0.1-0.3,0.1-0.3s0,0,0-0.1c0,0,0,0,0,0s0,0,0,0c0,0,0,0,0,0s0-0.1,0-0.2c0-0.1,0-0.2,0-0.2
		c0,0,0,0-0.1-0.1c-0.1-0.1-0.1-0.1-0.1-0.1s0,0,0,0c0,0,0,0,0,0s0,0,0-0.1c0-0.1,0-0.1,0-0.1s0-0.1,0-0.2c0-0.1,0-0.2,0-0.2
		s0,0,0-0.1c0-0.1,0-0.1,0-0.1s-0.1,0-0.2-0.1c-0.1-0.1-0.2-0.1-0.2-0.1s0,0,0,0.1c0,0,0,0.1,0,0.1s-0.1-0.1-0.2-0.2
		c-0.2-0.1-0.2-0.2-0.2-0.2s0-0.1,0.1-0.3c0-0.2,0.1-0.3,0.1-0.3s0,0,0-0.1c0-0.1,0-0.1,0-0.1s-0.1,0-0.2-0.1
		c-0.1,0-0.2-0.1-0.2-0.1s-0.1-0.1-0.2-0.4c-0.2-0.2-0.2-0.4-0.2-0.4s-0.1,0-0.2,0c-0.1,0-0.2,0-0.2,0s0-0.1-0.1-0.3
		c0-0.2-0.1-0.3-0.1-0.3s-0.1,0-0.2-0.2c-0.1-0.1-0.2-0.2-0.2-0.2s0-0.1-0.1-0.2c0-0.2-0.1-0.2-0.1-0.2s0,0-0.1-0.1
		c-0.1,0-0.1-0.1-0.1-0.1s-0.1-0.1-0.2-0.3c-0.1-0.2-0.2-0.3-0.2-0.3s-0.1-0.1-0.3-0.3c-0.2-0.2-0.3-0.3-0.3-0.3s0-0.1,0-0.2
		c0-0.1,0-0.2,0-0.2s0-0.1-0.1-0.3c-0.1-0.2-0.1-0.3-0.1-0.3s0,0,0.1,0c0,0,0.1,0,0.1,0s0,0,0-0.1c0,0,0-0.1,0-0.1s0,0-0.1,0
		c-0.1,0-0.1,0-0.1,0s0,0,0.1-0.1c0-0.1,0.1-0.1,0.1-0.1s0,0,0.1,0.1c0.1,0,0.1,0.1,0.1,0.1s0,0,0.1-0.1c0,0,0.1-0.1,0.1-0.1
		s0-0.1,0.1-0.4c0-0.2,0.1-0.4,0.1-0.4s0,0,0-0.1c0,0,0-0.1,0-0.1s0-0.1-0.1-0.2c-0.1-0.2-0.1-0.2-0.1-0.2s-0.1,0-0.3,0
		c-0.2,0-0.3,0-0.3,0s-0.1,0-0.2-0.1c-0.1-0.1-0.2-0.1-0.2-0.1s0-0.1-0.1-0.2c-0.1-0.1-0.1-0.2-0.1-0.2s0,0-0.1,0
		c-0.1,0-0.1,0-0.1,0s0,0,0,0c0,0,0,0,0,0s0-0.1-0.1-0.2c-0.1-0.1-0.1-0.2-0.1-0.2s0,0,0-0.1c0-0.1,0-0.1,0-0.1s0-0.1,0-0.2
		c0-0.2,0-0.2,0-0.2s0-0.1-0.1-0.3c0-0.2-0.1-0.3-0.1-0.3s0,0-0.1,0c-0.1,0-0.1,0-0.1,0s0,0,0-0.1c0-0.1,0-0.1,0-0.1s0,0,0-0.1
		c0-0.1,0-0.1,0-0.1s0,0,0.1-0.1c0,0,0.1-0.1,0.1-0.1s0,0,0-0.1c0-0.1,0-0.1,0-0.1s0-0.1,0-0.2c0-0.1,0-0.2,0-0.2s0,0,0.1,0
		c0,0,0.1,0,0.1,0s0,0,0-0.1c0,0,0-0.1,0-0.1s0,0-0.1,0c0,0-0.1,0-0.1,0s-0.1-0.1-0.2-0.2c-0.1-0.1-0.2-0.2-0.2-0.2s0,0-0.1,0
		c-0.1,0-0.1,0-0.1,0s-0.1-0.1-0.2-0.2c-0.1-0.2-0.2-0.2-0.2-0.2s0,0-0.1,0c-0.1,0-0.1,0-0.1,0s0,0,0,0c0,0,0,0,0,0s0,0,0,0
		c0,0,0,0,0,0s0,0-0.1,0c0,0-0.1,0-0.1,0s0-0.1,0.1-0.3c0.1-0.2,0.1-0.3,0.1-0.3s0-0.1-0.1-0.2c0-0.1-0.1-0.2-0.1-0.2s0,0,0-0.1
		c0,0,0-0.1,0-0.1s0,0,0-0.1c0,0,0-0.1,0-0.1s0,0-0.1,0c0,0-0.1,0-0.1,0s0,0,0,0c0,0,0,0,0,0s0,0,0-0.1c0-0.1,0-0.1,0-0.1
		s0,0-0.1-0.1c-0.1-0.1-0.1-0.1-0.1-0.1s-0.1-0.1-0.3-0.3c-0.2-0.2-0.3-0.3-0.3-0.3s-0.1-0.1-0.2-0.3c-0.1-0.2-0.2-0.3-0.2-0.3
		s0,0-0.1-0.1c-0.1-0.1-0.1-0.1-0.1-0.1s-0.1-0.1-0.3-0.3c-0.2-0.2-0.3-0.3-0.3-0.3s0,0,0-0.1c0,0,0-0.1,0-0.1s0,0,0.1-0.1
		c0,0,0.1-0.1,0.1-0.1s0,0,0-0.1c0-0.1,0-0.1,0-0.1s-0.1-0.2-0.2-0.6c-0.2-0.4-0.2-0.6-0.2-0.6s0-0.1,0-0.2c0-0.1,0-0.2,0-0.2
		s0-0.1,0.1-0.2c0.1-0.2,0.1-0.2,0.1-0.2s0-0.1-0.1-0.3c0-0.2-0.1-0.3-0.1-0.3s0,0-0.1-0.1c0,0-0.1-0.1-0.1-0.1s0-0.1,0-0.2
		c0-0.2,0-0.2,0-0.2s0,0-0.1,0c0,0-0.1,0-0.1,0s-0.1-0.1-0.2-0.3c-0.1-0.2-0.2-0.3-0.2-0.3s0,0-0.1,0c0,0-0.1,0-0.1,0s0-0.1-0.1-0.2
		c0-0.1-0.1-0.2-0.1-0.2s-0.1-0.1-0.4-0.3c-0.3-0.2-0.4-0.3-0.4-0.3s0-0.1,0-0.2c0-0.1,0-0.2,0-0.2s0,0-0.1-0.1
		c0-0.1-0.1-0.1-0.1-0.1s0.1-0.3,0.4-0.9c0.3-0.6,0.4-0.9,0.4-0.9s0-0.1,0.1-0.3c0-0.2,0.1-0.3,0.1-0.3s0,0-0.1-0.1
		c-0.1,0-0.1-0.1-0.1-0.1s0-0.1,0-0.2c0-0.1,0-0.2,0-0.2s0,0,0.1,0c0,0,0.1,0,0.1,0s0-0.1,0.1-0.2c0.1-0.2,0.1-0.2,0.1-0.2
		s0-0.1,0-0.4c0-0.3,0-0.4,0-0.4s0-0.1,0-0.2c0-0.1,0-0.2,0-0.2s0,0-0.1-0.1c0,0-0.1-0.1-0.1-0.1s0-0.1,0-0.3c0-0.2,0-0.3,0-0.3
		s-0.1,0-0.2,0c-0.1,0-0.2,0-0.2,0s0,0,0-0.1c0-0.1,0-0.1,0-0.1s0-0.1,0.1-0.2c0-0.2,0.1-0.2,0.1-0.2s0-0.1,0-0.2c0-0.1,0-0.2,0-0.2
		s0.2,0,0.6,0c0.4,0,0.6,0,0.6,0s0.2,0,0.5,0c0.3,0,0.5,0,0.5,0s0.2,0,0.5,0c0.3,0,0.4,0,0.4,0s0.5,0,1.5,0c1,0,1.5,0,1.5,0
		s0.4,0,1.3,0c0.9,0,1.3,0,1.3,0s0.3,0,0.9,0c0.6,0,0.9,0,0.9,0s0.5,0,1.4,0c0.9,0,1.4,0,1.4,0s0,0.5,0,1.6c0,1.1,0,1.6,0,1.6
		s0,1,0,2.9c0,2,0,2.9,0,2.9s0,0.2,0,0.5c0,0.4,0,0.5,0,0.5s0,0.1,0,0.3c0,0.2,0,0.3,0,0.3s0,0.1,0,0.3c0,0.2,0,0.3,0,0.3s0,0,0,0.1
		c0,0.1,0,0.1,0,0.1s0,0,0,0.1c0,0.1,0,0.1,0,0.1s0,0.1,0,0.2s0,0.2,0,0.2s0.1,0,0.2,0.1c0.1,0.1,0.2,0.1,0.2,0.1s0.2,0.2,0.5,0.5
		c0.3,0.3,0.5,0.5,0.5,0.5s0.1,0.1,0.4,0.3c0.3,0.2,0.4,0.3,0.4,0.3s0.1,0.1,0.3,0.3c0.2,0.2,0.3,0.3,0.3,0.3s0.4,0.3,1.2,1
		c0.8,0.7,1.2,1,1.2,1s0.3,0.3,0.9,0.9c0.6,0.6,0.9,0.9,0.9,0.9s0.4,0.3,1.1,1c0.7,0.7,1.1,1,1.1,1s0.7,0.6,2,1.9
		c1.4,1.3,2,1.9,2,1.9s0.1,0.1,0.4,0.4c0.3,0.3,0.4,0.4,0.4,0.4s0.5,0.5,1.6,1.6c1.1,1.1,1.6,1.6,1.6,1.6s0,0.1,0,0.3
		c0,0.2,0,0.3,0,0.3s0,0,0.1,0.1c0,0,0.1,0.1,0.1,0.1s0,0,0.1,0.1c0,0.1,0.1,0.1,0.1,0.1s0,0,0.1,0.1c0.1,0.1,0.1,0.1,0.1,0.1
		s0,0.1,0.1,0.2c0,0.1,0.1,0.2,0.1,0.2s0,0,0.1,0.1c0,0.1,0.1,0.1,0.1,0.1s0,0,0,0.1c0,0.1,0,0.1,0,0.1s0,0,0.1,0c0.1,0,0.1,0,0.1,0
		s0.1,0.1,0.3,0.3C144.3,41,144.4,41.1,144.4,41.2C144.4,41.1,144.4,41.1,144.4,41.2z M123.6,38.5C123.6,38.5,123.6,38.4,123.6,38.5
		C123.6,38.4,123.6,38.4,123.6,38.5L123.6,38.5z"/>
</g>
</svg>
