<svg xmlns="http://www.w3.org/2000/svg" viewBox="0 0 450.5 66.56" width="400">
  <title>Asset 4</title>
  <g id="ecaa09fc-362b-4a7f-af11-5a415048946f" data-name="Layer 2">
    <g id="f33fbdc9-b53f-42cc-8eb1-fb763e92993b" data-name="Layer 1">
      <path d="M21.82,3.39c-.12-1.33,0-1.69-1.09-1.94-.24,0-.36-.12-.36-.24s.12-.12.48-.12,1.34.12,2.06.12,1.82-.12,2.06-.12.37,0,.37.12-.12.12-.37.24c-.84.25-1,.61-1.09,1.34s-.12,4.61-.12,5.09c0,.24,0,.49.24.49h6.43A13.33,13.33,0,0,0,33,8.24c.24,0,.24-.12.24-.48,0-.73,0-3.52-.12-4.37C33,1.82,33,1.45,31.88,1.33c-.24,0-.36-.12-.36-.24A.53.53,0,0,1,31.88,1c.61,0,1.34.12,2.31.12.72,0,1.45-.12,2.06-.12.24,0,.36,0,.36.12s-.12.12-.36.24c-1.09.25-1.09.61-1.09,1.7V9.09c0,1.7.12,3.15.12,5.22,0,1.21.12,1.45,1.21,1.69.24.12.36.12.36.25s-.12.12-.36.12c-.61,0-1.7-.12-2.3-.12s-1.46.12-1.94.12c-.24,0-.49,0-.49-.25s.12-.12.49-.24c.85-.12,1.09-.36,1.09-1.33s.12-4,0-5c0-.37,0-.61-.24-.61-.85,0-3.88-.12-6.43-.12H23.88c-.12,0-.12.12-.12.61A50.18,50.18,0,0,0,24,15.15,1.18,1.18,0,0,0,25,16c.37.12.49.12.49.25s-.24.12-.49.12c-.6,0-1.45-.12-2.18-.12s-1.57.12-2.06.12a1.24,1.24,0,0,1-.48-.12c0-.13.12-.25.48-.25.85-.12,1.09-.48,1.09-1.21s.12-2.42.12-6.3c0-1,0-4.13-.12-5.1" style="fill: #002d5d"/>
      <path d="M52,2.06c.24.12.24.24.24.36,0,.61.12,1.58.12,1.82a.54.54,0,0,1-.12.37c-.12,0-.12-.12-.24-.37A3.86,3.86,0,0,0,50.8,2.3a5.94,5.94,0,0,0-3.88-1.21A5.72,5.72,0,0,0,42.55,3a8.32,8.32,0,0,0-1.94,5.58,8.69,8.69,0,0,0,2.31,5.82,6.06,6.06,0,0,0,4.36,1.82,5.1,5.1,0,0,0,3-.73,3.94,3.94,0,0,0,1.94-2.43c.12-.36.12-.36.24-.36s.12.24.12.36A9.17,9.17,0,0,1,52.25,15c0,.12-.12.25-.24.37a9.2,9.2,0,0,1-5,1.33,9,9,0,0,1-6.55-2.55,8.19,8.19,0,0,1-2.06-5.33,7.85,7.85,0,0,1,2.79-6.18A8.85,8.85,0,0,1,47,.61a15.41,15.41,0,0,1,5,1.45" style="fill: #002d5d"/>
      <path d="M62.8,1.33c.12,0,.12.25.12.25,0,.6.12,1.33.12,1.57s0,.49-.12.49-.12-.12-.24-.37a3.18,3.18,0,0,0-1-1.45,4.06,4.06,0,0,0-2.06-.61,3,3,0,0,0-2.91,3A3.27,3.27,0,0,0,58.56,7c1,.61,1.81,1.21,2.54,1.7a4.45,4.45,0,0,1,2.43,3.88c0,2.67-2.67,4.36-5.22,4.36a7.44,7.44,0,0,1-3.39-.72,1.29,1.29,0,0,1-.49-.61c0-.36-.24-1.21-.24-1.82,0-.24,0-.48.12-.48s.12.12.24.48a3.66,3.66,0,0,0,3.76,2.67,3.17,3.17,0,0,0,3.28-3.15c0-1.7-1.22-2.55-3-3.76S55,7,55,5a3.86,3.86,0,0,1,1.58-3.15,5.74,5.74,0,0,1,3.27-1,12,12,0,0,1,2.91.48" style="fill: #002d5d"/>
      <path d="M16.37,11.27h0l-.12.13-.13.12h0v.24h0v.48h0v.25h.25v.24h0a2.13,2.13,0,0,0-.61.12,1.54,1.54,0,0,0-.61.12h-1v-.24h0v-.24h0v-.25l-.12-.12L13.94,12H13.7l-.12-.12a.12.12,0,0,1-.12-.12H13v-.24h-.24l-.12-.12c-.12,0-.12-.13-.12-.13h0V11H11.4v-.24h0v-.24h-.25V10.3h0L11,10.18a.12.12,0,0,0-.12-.12h-.24V9.82h-.24V9.7h0V9.46l-.13-.13a.12.12,0,0,1-.12-.12h0V9h0V8.73h0V8.49H9.94V8h0l-.12-.12L9.7,7.76h0V7.52h0L9.58,7.4l-.12-.13V7h0l-.13-.12-.12-.12h0l-.12-.12A.12.12,0,0,0,9,6.55H9V6.06H9V5.82H9V5.58H9l-.12-.12c-.12,0-.12-.13-.12-.13V5.09h0a.37.37,0,0,1,.12-.24A.37.37,0,0,0,9,4.61V4.36H9V4H9V3.76H9V3.52h1.94V6.91h0L11,7l.12.12.12.12a.13.13,0,0,1,.13.13l.12.12.12.12a1.49,1.49,0,0,0,.36.24c.24.24.37.24.37.24l.24.25.24.24a1.49,1.49,0,0,0,.36.24c.25.24.37.24.37.24a2.58,2.58,0,0,1,.6.49,2.82,2.82,0,0,0,.61.48l.12.12.12.12.49.49.48.48v.25h0v.24h0s.25-.61.37-.49Zm-1.09-9A10.87,10.87,0,0,0,9.7,1c-.49,0-1.58.12-2.18.12a28.89,28.89,0,0,1-3.16.12c-.24,0-.48,0-.48.12s.12.12.36.25c1,.24,1.09.48,1.09,1.33s.13,2.79.13,7.15a45.32,45.32,0,0,1-.13,4.85c0,1-.24,1.21-1.21,1.34a1.24,1.24,0,0,0-.48.12c0,.12.24.24.48.24h1.7c.73,0,1.45.12,2.18.12s1.33.12,1.94.12a7.11,7.11,0,0,0,2.3-.24c3.16-.73,6.67-2.91,6.67-7.76A7,7,0,0,0,15.28,2.3" style="fill: #002d5d"/>
      <path d="M33.22,41C13.09,34.07,18.31,27.16,18.31,27.16c4.48-5.22,13.33,6.06,14.91,8.24v-8h0A18.21,18.21,0,0,0,17.82,19C8,19,0,26.67,0,36.25a17,17,0,0,0,8,14.3,101.63,101.63,0,0,0,10.43,5.82c5.21,2.06,14.79,6.19,14.79,6.19V58.19C7.52,49.83,7.76,43.64,7.76,43.64c1.7,5.94,25.46,13.82,25.46,13.82V53.22C8.37,44.37,9.46,38.43,9.46,38.43c1,6.06,23.76,14.06,23.88,14.06V47.77c-22.55-9.1-21.7-14.92-21.7-14.92C12.61,38.92,33.22,47,33.34,47V44.86h0V41Z" style="fill: #93358d"/>
      <path d="M34.07,41C54.07,34.07,49,27.16,49,27.16c-4.49-5.22-13.34,6.06-14.91,8.24v-8h0A18.2,18.2,0,0,1,49.46,19c9.7-.12,17.7,7.52,17.7,17a17,17,0,0,1-8,14.3,100.92,100.92,0,0,1-10.42,5.82c-5.1,2.3-14.67,6.43-14.67,6.43V58.19c25.7-8.36,25.46-14.55,25.46-14.55-1.7,5.94-25.46,13.82-25.46,13.82V53.22c24.85-8.85,23.76-14.79,23.76-14.79-1,6.06-23.76,14.06-23.88,14.06V47.77c22.54-9.1,21.7-14.92,21.7-14.92C54.68,38.92,34.07,47,34,47V44.86h0V41Z" style="fill: #002d5d"/>
      <g>
        <path d="M136.63,27.52H131.9V14.91c0-1.33,0-2.91.12-4.48h-.12c-.24,1.33-.48,2.18-.61,2.78l-5,14.31h-3.88l-5.09-14.18a21.45,21.45,0,0,1-.6-2.91h-.12c.12,2.06.24,3.88.24,5.45V27.52h-4.24V6.43h6.91l4.36,12.48a13.92,13.92,0,0,1,.73,3h.12a14.8,14.8,0,0,1,.85-3L130,6.43h6.79V27.52Z" style="fill: #17315a"/>
        <path d="M154.45,21.22h-9.82c.12,2.18,1.58,3.27,4.12,3.27a7.4,7.4,0,0,0,4.37-1.21v3.39a11.47,11.47,0,0,1-5.46,1.09A7.84,7.84,0,0,1,142,25.7,7.81,7.81,0,0,1,139.9,20a8,8,0,0,1,2.18-5.94,7.36,7.36,0,0,1,5.34-2.18,6.51,6.51,0,0,1,5.09,1.94,7.49,7.49,0,0,1,1.82,5.33v2.07Zm-4.24-2.79c0-2.18-.85-3.28-2.67-3.28a2.76,2.76,0,0,0-1.94,1,4.51,4.51,0,0,0-1,2.31Z" style="fill: #17315a"/>
        <path d="M172,27.52h-4.61V25.46h0a5.39,5.39,0,0,1-4.6,2.42,5.77,5.77,0,0,1-4.61-1.94,8.5,8.5,0,0,1-1.7-5.57,8.36,8.36,0,0,1,1.94-5.94,6.26,6.26,0,0,1,5-2.31,4.19,4.19,0,0,1,4,2.06h0v-9H172V27.52Zm-4.61-7.4V19a3.28,3.28,0,0,0-.85-2.42,3,3,0,0,0-2.18-1A2.81,2.81,0,0,0,162,16.85a5.46,5.46,0,0,0-.85,3.27,4.52,4.52,0,0,0,.85,3,3,3,0,0,0,4.6,0A4.73,4.73,0,0,0,167.42,20.12Z" style="fill: #17315a"/>
        <path d="M178.21,10.06a2.74,2.74,0,0,1-1.94-.73,2.4,2.4,0,0,1-.73-1.69,2.23,2.23,0,0,1,.73-1.7,2.53,2.53,0,0,1,1.94-.61,3.1,3.1,0,0,1,1.94.61,2.2,2.2,0,0,1,.73,1.7,2,2,0,0,1-.73,1.69A2.53,2.53,0,0,1,178.21,10.06Zm2.31,17.46h-4.61V12.37h4.61Z" style="fill: #17315a"/>
        <path d="M192.64,21.09h-8V17.82h8Z" style="fill: #17315a"/>
        <path d="M212.28,26.67a14.25,14.25,0,0,1-6.06,1.09,10,10,0,0,1-7.64-2.91,10.73,10.73,0,0,1-2.79-7.63A11.45,11.45,0,0,1,198.94,9a11,11,0,0,1,8.13-3.15,16.24,16.24,0,0,1,5.21.73v4.6a9.3,9.3,0,0,0-4.85-1.21,6.69,6.69,0,0,0-4.85,1.82,6.89,6.89,0,0,0-1.82,5.09,6.94,6.94,0,0,0,1.7,4.85,6,6,0,0,0,4.61,1.82,10.76,10.76,0,0,0,5.09-1.33v4.48Z" style="fill: #17315a"/>
        <path d="M228,27.52h-4.49V25.34h0a4.9,4.9,0,0,1-4.48,2.54,4.32,4.32,0,0,1-3.4-1.21,4.38,4.38,0,0,1-1.21-3.27c0-2.91,1.7-4.61,5.21-5.09l4.13-.49c0-1.7-.85-2.42-2.67-2.42A8.69,8.69,0,0,0,216,17V13.46a9.45,9.45,0,0,1,2.66-.85,14.91,14.91,0,0,1,3-.37c4.25,0,6.43,2.19,6.43,6.43v8.85Zm-4.37-6.18v-1l-2.78.36c-1.46.24-2.31.85-2.31,2.06a1.87,1.87,0,0,0,2.06,1.82,2.93,2.93,0,0,0,2.19-.85A4.21,4.21,0,0,0,223.67,21.34Z" style="fill: #17315a"/>
        <path d="M236.28,27.52h-4.6V5.21h4.6Z" style="fill: #17315a"/>
        <path d="M273,27.52h-4.61V14.91c0-1.33,0-2.91.12-4.48h-.12c-.24,1.33-.49,2.18-.61,2.78l-5,14.31H259l-5.09-14.18a22.52,22.52,0,0,1-.61-2.91h-.12c.12,2.06.25,3.88.25,5.45V27.52H249V6.43h6.91l4.37,12.48a13.89,13.89,0,0,1,.72,3h.12a16.2,16.2,0,0,1,.85-3l4.37-12.48h6.79V27.52Z" style="fill: #17315a"/>
        <path d="M289.87,27.52H285.5V25.34h0A4.9,4.9,0,0,1,281,27.88a4.32,4.32,0,0,1-3.4-1.21,4.38,4.38,0,0,1-1.21-3.27c0-2.91,1.7-4.61,5.21-5.09l4.12-.49c0-1.7-.84-2.42-2.66-2.42A8.69,8.69,0,0,0,278,17V13.46a9.45,9.45,0,0,1,2.66-.85,14.91,14.91,0,0,1,3-.37c4.25,0,6.43,2.19,6.43,6.43v8.85Zm-4.37-6.18v-1l-2.79.36c-1.45.24-2.3.85-2.3,2.06a1.87,1.87,0,0,0,2.06,1.82,2.89,2.89,0,0,0,2.18-.85A3.47,3.47,0,0,0,285.5,21.34Z" style="fill: #17315a"/>
        <path d="M308.17,27.52h-4.6V19.15c0-2.3-.85-3.51-2.55-3.51a2.35,2.35,0,0,0-1.94,1,3.76,3.76,0,0,0-.73,2.3v8.61h-4.6V12.37h4.6v2.42h0A5.32,5.32,0,0,1,303.2,12c3.4,0,5,2.06,5,6.18Z" style="fill: #17315a"/>
        <path d="M324.42,27.52h-4.37V25.34h0a4.9,4.9,0,0,1-4.48,2.54,4.32,4.32,0,0,1-3.4-1.21A4.42,4.42,0,0,1,311,23.4c0-2.91,1.7-4.61,5.21-5.09l4.13-.49c0-1.7-.85-2.42-2.67-2.42A8.69,8.69,0,0,0,312.54,17V13.46a9.45,9.45,0,0,1,2.66-.85,15,15,0,0,1,3-.37c4.24,0,6.42,2.19,6.42,6.43v8.85Zm-4.49-6.18v-1l-2.79.36c-1.45.24-2.3.85-2.3,2.06a1.87,1.87,0,0,0,2.06,1.82,2.89,2.89,0,0,0,2.18-.85A3.47,3.47,0,0,0,319.93,21.34Z" style="fill: #17315a"/>
        <path d="M342.85,25.7a8.88,8.88,0,0,1-2.43,6.55c-1.58,1.57-4,2.3-7,2.3a10.82,10.82,0,0,1-4.85-.85V29.82a10,10,0,0,0,4.73,1.34,4.91,4.91,0,0,0,3.64-1.22,4.58,4.58,0,0,0,1.33-3.39V25.34h0a5.3,5.3,0,0,1-4.73,2.54,5.88,5.88,0,0,1-4.61-2.06,8.37,8.37,0,0,1-1.69-5.45,8.63,8.63,0,0,1,1.94-6.06,6.26,6.26,0,0,1,5-2.31,4.8,4.8,0,0,1,4.12,2.06h0V12.37h4.61V25.7Zm-4.61-5.45V19a3.28,3.28,0,0,0-.85-2.42,3,3,0,0,0-2.18-1,2.84,2.84,0,0,0-2.43,1.21,5.7,5.7,0,0,0-.85,3.4,4.78,4.78,0,0,0,.85,3,3,3,0,0,0,4.61,0A6,6,0,0,0,338.24,20.25Z" style="fill: #17315a"/>
        <path d="M360.18,21.22h-9.82c.12,2.18,1.58,3.27,4.12,3.27a7.38,7.38,0,0,0,4.37-1.21v3.39a11.45,11.45,0,0,1-5.46,1.09,7.84,7.84,0,0,1-5.7-2.06,7.81,7.81,0,0,1-2.06-5.7,8,8,0,0,1,2.19-5.94,7.32,7.32,0,0,1,5.33-2.18,6.51,6.51,0,0,1,5.09,1.94,7.49,7.49,0,0,1,1.82,5.33v2.07Zm-4.24-2.79c0-2.18-.85-3.28-2.67-3.28a2.76,2.76,0,0,0-1.94,1,4.51,4.51,0,0,0-1,2.31Z" style="fill: #17315a"/>
        <path d="M377.76,27.52h-4.61V25.46h0a5.38,5.38,0,0,1-4.6,2.42,5.77,5.77,0,0,1-4.61-1.94c-1.21-1.33-1.7-3.15-1.7-5.57a8.36,8.36,0,0,1,1.94-5.94,6.46,6.46,0,0,1,5-2.31,4.18,4.18,0,0,1,4,2.06h0v-9h4.61V27.52Zm-4.61-7.4V19a3.28,3.28,0,0,0-.85-2.42,3,3,0,0,0-2.18-1,2.81,2.81,0,0,0-2.42,1.21,5.46,5.46,0,0,0-.85,3.27,4.52,4.52,0,0,0,.85,3,3,3,0,0,0,4.6,0A4.73,4.73,0,0,0,373.15,20.12Z" style="fill: #17315a"/>
        <path d="M405.52,26.67a14.19,14.19,0,0,1-6.06,1.09,10,10,0,0,1-7.64-2.91A10.72,10.72,0,0,1,389,17.22,11.45,11.45,0,0,1,392.19,9a11,11,0,0,1,8.12-3.15,16.2,16.2,0,0,1,5.21.73v4.6a9.28,9.28,0,0,0-4.85-1.21,6.71,6.71,0,0,0-4.85,1.82A6.88,6.88,0,0,0,394,16.85a6.94,6.94,0,0,0,1.69,4.85,6,6,0,0,0,4.61,1.82,10.7,10.7,0,0,0,5.09-1.33v4.48Z" style="fill: #17315a"/>
        <path d="M421.28,27.52h-4.36V25.34h0a4.92,4.92,0,0,1-4.49,2.54A4.31,4.31,0,0,1,409,26.67a4.38,4.38,0,0,1-1.21-3.27c0-2.91,1.69-4.61,5.21-5.09l4.12-.49c0-1.7-.85-2.42-2.67-2.42A8.73,8.73,0,0,0,409.4,17V13.46a9.64,9.64,0,0,1,2.67-.85,14.83,14.83,0,0,1,3-.37c4.24,0,6.43,2.19,6.43,6.43v8.85Zm-4.36-6.18v-1l-2.79.36c-1.45.24-2.3.85-2.3,2.06a1.86,1.86,0,0,0,2.06,1.82,2.91,2.91,0,0,0,2.18-.85A3.27,3.27,0,0,0,416.92,21.34Z" style="fill: #17315a"/>
        <path d="M434.86,16.61a3.6,3.6,0,0,0-1.94-.49,3,3,0,0,0-2.42,1.1,4.47,4.47,0,0,0-.85,3V27.4H425v-15h4.61v2.78h0a4,4,0,0,1,4-3,2.72,2.72,0,0,1,1.09.12v4.37Z" style="fill: #17315a"/>
        <path d="M450.5,21.22h-9.82c.12,2.18,1.58,3.27,4.12,3.27a7.4,7.4,0,0,0,4.37-1.21v3.39a11.47,11.47,0,0,1-5.46,1.09A7.84,7.84,0,0,1,438,25.7,7.81,7.81,0,0,1,436,20a8,8,0,0,1,2.18-5.94,7.36,7.36,0,0,1,5.34-2.18,6.51,6.51,0,0,1,5.09,1.94,7.49,7.49,0,0,1,1.82,5.33v2.07Zm-4.36-2.79c0-2.18-.85-3.28-2.67-3.28a2.74,2.74,0,0,0-1.94,1,4.43,4.43,0,0,0-1,2.31Z" style="fill: #17315a"/>
        <path d="M130.81,58.07h-4.73V49.46h-8.73v8.61h-4.73V37h4.73v8.36h8.73V37h4.73Z" style="fill: #17315a"/>
        <path d="M148.75,51.89h-9.82c.12,2.18,1.58,3.27,4.12,3.27A7.38,7.38,0,0,0,147.42,54v3.39A11.42,11.42,0,0,1,142,58.43a7.15,7.15,0,0,1-7.76-7.75,8,8,0,0,1,2.19-6,7.32,7.32,0,0,1,5.33-2.18,6.51,6.51,0,0,1,5.09,1.94,7.52,7.52,0,0,1,1.82,5.34v2.06Zm-4.36-2.79c0-2.18-.85-3.27-2.67-3.27a2.72,2.72,0,0,0-1.94,1,4.44,4.44,0,0,0-1,2.3Z" style="fill: #17315a"/>
        <path d="M164,58.07h-4.37V55.89h0a4.88,4.88,0,0,1-4.48,2.54,4.32,4.32,0,0,1-3.4-1.21A4.38,4.38,0,0,1,150.57,54c0-2.91,1.7-4.61,5.21-5.09l4.13-.49c0-1.7-.85-2.42-2.67-2.42a8.69,8.69,0,0,0-5.09,1.57V44a9.45,9.45,0,0,1,2.66-.85,14.83,14.83,0,0,1,3-.36c4.25,0,6.43,2.18,6.43,6.42v8.85ZM159.66,52V51l-2.79.36c-1.45.25-2.3.85-2.3,2.06a1.87,1.87,0,0,0,2.06,1.82,2.89,2.89,0,0,0,2.18-.85A3.45,3.45,0,0,0,159.66,52Z" style="fill: #17315a"/>
        <path d="M172.39,58.07h-4.6V35.76h4.6Z" style="fill: #17315a"/>
        <path d="M185.36,58a7.15,7.15,0,0,1-3.15.48c-3.27,0-5-1.69-5-5.09V46.43h-2.42V43h2.42V39.76l4.61-1.33V43h3.39v3.39h-3.39v6.06c0,1.58.6,2.31,1.82,2.31a2.87,2.87,0,0,0,1.57-.49V58Z" style="fill: #17315a"/>
        <path d="M202.46,58.07h-4.61V49.46c0-2.18-.85-3.27-2.42-3.27a2.75,2.75,0,0,0-2.06,1,3.7,3.7,0,0,0-.73,2.3v8.61H188V35.76h4.61v9.46h0a5.23,5.23,0,0,1,4.61-2.55q5.08,0,5.09,6.19v9.21Z" style="fill: #17315a"/>
        <path d="M230.1,57.34A14.25,14.25,0,0,1,224,58.43a10,10,0,0,1-7.64-2.91,10.73,10.73,0,0,1-2.79-7.63,11.46,11.46,0,0,1,3.15-8.25,11,11,0,0,1,8.13-3.15,16.24,16.24,0,0,1,5.21.73v4.61a9.31,9.31,0,0,0-4.85-1.22,6.69,6.69,0,0,0-4.85,1.82,6.89,6.89,0,0,0-1.82,5.09,6.94,6.94,0,0,0,1.7,4.85,6,6,0,0,0,4.61,1.82A10.64,10.64,0,0,0,230,52.86v4.48Z" style="fill: #17315a"/>
        <path d="M245.74,58.07h-4.37V55.89h0a4.88,4.88,0,0,1-4.48,2.54,4.32,4.32,0,0,1-3.4-1.21A4.42,4.42,0,0,1,232.28,54c0-2.91,1.7-4.61,5.21-5.09l4.13-.49c0-1.7-.85-2.42-2.67-2.42a8.69,8.69,0,0,0-5.09,1.57V44a9.45,9.45,0,0,1,2.66-.85,14.92,14.92,0,0,1,3-.36c4.24,0,6.42,2.18,6.42,6.42v8.85ZM241.37,52V51l-2.78.36c-1.46.25-2.31.85-2.31,2.06a1.87,1.87,0,0,0,2.06,1.82,2.93,2.93,0,0,0,2.19-.85A3.49,3.49,0,0,0,241.37,52Z" style="fill: #17315a"/>
        <path d="M259.32,47.28a3.61,3.61,0,0,0-1.94-.48A3.06,3.06,0,0,0,255,47.89a4.53,4.53,0,0,0-.85,3v7.15h-4.6V43h4.6v2.79h0a4,4,0,0,1,4-3,2.77,2.77,0,0,1,1.1.12v4.36Z" style="fill: #17315a"/>
        <path d="M275,51.89h-9.82c.12,2.18,1.57,3.27,4.12,3.27A7.37,7.37,0,0,0,273.62,54v3.39a11.4,11.4,0,0,1-5.45,1.09,7.13,7.13,0,0,1-7.76-7.75,8,8,0,0,1,2.18-6,7.32,7.32,0,0,1,5.33-2.18,6.53,6.53,0,0,1,5.1,1.94,7.51,7.51,0,0,1,1.81,5.34v2.06Zm-4.25-2.79c0-2.18-.85-3.27-2.66-3.27a2.7,2.7,0,0,0-1.94,1,4.36,4.36,0,0,0-1,2.3Z" style="fill: #17315a"/>
        <path d="M295.44,58.43a9.94,9.94,0,0,1-7.39-2.91,10.31,10.31,0,0,1-2.91-7.63,11.33,11.33,0,0,1,2.91-8.13,10,10,0,0,1,7.64-3A9.49,9.49,0,0,1,303,39.64a11.06,11.06,0,0,1,2.79,7.76,11.19,11.19,0,0,1-2.91,8A9.27,9.27,0,0,1,295.44,58.43Zm.25-17.7a4.85,4.85,0,0,0-4,1.82,7.82,7.82,0,0,0-1.46,5,7.82,7.82,0,0,0,1.46,5,4.74,4.74,0,0,0,3.87,1.82,4.59,4.59,0,0,0,3.88-1.82,7.57,7.57,0,0,0,1.46-5,8,8,0,0,0-1.46-5.09A4.6,4.6,0,0,0,295.69,40.73Z" style="fill: #17315a"/>
        <path d="M313.63,56.37h0V65.1H309V43h4.61v2.3h0a5.59,5.59,0,0,1,4.85-2.67A5.31,5.31,0,0,1,323,44.73a9.15,9.15,0,0,1,1.58,5.46,9.49,9.49,0,0,1-1.82,6.06,5.92,5.92,0,0,1-5,2.31A4.91,4.91,0,0,1,313.63,56.37Zm-.12-6.18V51.4a3.42,3.42,0,0,0,.85,2.55,2.85,2.85,0,0,0,2.18,1A2.57,2.57,0,0,0,319,53.71a5.79,5.79,0,0,0,.85-3.52c0-2.67-1-4-3-4a2.79,2.79,0,0,0-2.3,1.09A4.41,4.41,0,0,0,313.51,50.19Z" style="fill: #17315a"/>
        <path d="M336.66,58a7.15,7.15,0,0,1-3.15.48c-3.27,0-5-1.69-5-5.09V46.43h-2.42V43h2.42V39.76l4.61-1.33V43h3.39v3.39h-3.39v6.06c0,1.58.6,2.31,1.82,2.31a2.87,2.87,0,0,0,1.57-.49V58Z" style="fill: #17315a"/>
        <path d="M341.63,40.73a2.79,2.79,0,0,1-1.94-.72,2.41,2.41,0,0,1-.72-1.7,2.22,2.22,0,0,1,.72-1.7,2.53,2.53,0,0,1,1.94-.6,3.09,3.09,0,0,1,1.94.6,2.2,2.2,0,0,1,.73,1.7,2,2,0,0,1-.73,1.7A2.57,2.57,0,0,1,341.63,40.73Zm2.31,17.34h-4.61V43h4.61Z" style="fill: #17315a"/>
        <path d="M355.09,58.43a8.37,8.37,0,0,1-5.94-2.06A7.36,7.36,0,0,1,347,50.68a7.47,7.47,0,0,1,2.18-5.82c1.45-1.46,3.52-2.06,6.06-2.06a8.37,8.37,0,0,1,5.94,2.06,7.45,7.45,0,0,1,2.18,5.57,7.93,7.93,0,0,1-2.18,5.94C359.7,57.83,357.64,58.43,355.09,58.43Zm.12-12.12a3.1,3.1,0,0,0-2.54,1.09,4.87,4.87,0,0,0-1,3.15c0,2.91,1.21,4.37,3.51,4.37s3.4-1.46,3.4-4.49C358.61,47.64,357.39,46.31,355.21,46.31Z" style="fill: #17315a"/>
        <path d="M380.91,58.07h-4.6V49.71c0-2.31-.85-3.52-2.55-3.52a2.34,2.34,0,0,0-1.94,1,3.76,3.76,0,0,0-.73,2.3v8.61h-4.6V43h4.6v2.42h0a5.32,5.32,0,0,1,4.85-2.79c3.4,0,5,2.06,5,6.19Z" style="fill: #17315a"/>
        <path d="M383.58,57.71V54a6.38,6.38,0,0,0,2.3,1,7,7,0,0,0,2.19.36,4.25,4.25,0,0,0,1.93-.36,1.13,1.13,0,0,0,.73-1,1.06,1.06,0,0,0-.36-.73,2,2,0,0,0-.85-.48l-1.09-.37c-.36-.12-.85-.24-1.21-.36-.61-.24-1.09-.49-1.58-.73a4.09,4.09,0,0,1-1.09-.85,5.11,5.11,0,0,1-.73-1.21,6.17,6.17,0,0,1-.24-1.58,4.16,4.16,0,0,1,.61-2.18A4.11,4.11,0,0,1,385.64,44a6,6,0,0,1,2.06-.85,16.67,16.67,0,0,1,2.43-.24,12.64,12.64,0,0,1,2.06.12,13,13,0,0,1,2.06.48v3.64a5.42,5.42,0,0,0-1.94-.73,12.33,12.33,0,0,0-1.94-.24,1.82,1.82,0,0,0-.85.12c-.24.12-.48.12-.73.24a1.66,1.66,0,0,0-.48.37.9.9,0,0,0-.12.6,1.7,1.7,0,0,0,.24.73c.12.24.36.36.73.49s.6.24,1,.36l1.09.36c.6.25,1.21.49,1.69.73a13,13,0,0,1,1.34.85,4.61,4.61,0,0,1,.85,1.21,3.65,3.65,0,0,1,.24,1.7,4.55,4.55,0,0,1-.61,2.3,4.91,4.91,0,0,1-1.57,1.58,6,6,0,0,1-2.19.85,18.13,18.13,0,0,1-2.66.24C386.49,58.43,385,58.19,383.58,57.71Z" style="fill: #17315a"/>
      </g>
      <line x1="87.77" y1="66.56" x2="87.77" style="fill: none;stroke: #93358d;stroke-miterlimit: 10"/>
    </g>
  </g>
</svg>
